<?xml version="1.0" standalone="no"?>
<!DOCTYPE svg PUBLIC "-//W3C//DTD SVG 20010904//EN"
 "http://www.w3.org/TR/2001/REC-SVG-20010904/DTD/svg10.dtd">
<svg version="1.0" xmlns="http://www.w3.org/2000/svg"
 width="512.000000pt" height="512.000000pt" viewBox="0 0 512.000000 512.000000"
 preserveAspectRatio="xMidYMid meet">
<metadata>
Created by potrace 1.11, written by Peter Selinger 2001-2013
</metadata>
<g transform="translate(0.000000,512.000000) scale(0.100000,-0.100000)"
fill="#000000" stroke="none">
<path d="M4326 5043 c-132 -205 -233 -481 -266 -732 l-11 -84 90 -91 c117
-119 176 -191 266 -326 210 -314 330 -678 360 -1089 l7 -94 35 54 c56 86 158
306 191 409 80 253 108 507 81 748 -37 342 -156 648 -360 922 -66 88 -233 262
-306 319 l-43 32 -44 -68z"/>
<path d="M874 3968 c-182 -227 -322 -504 -399 -785 -138 -502 -84 -1084 141
-1534 l33 -66 -132 -26 c-164 -33 -237 -55 -237 -71 0 -6 27 -66 59 -131 63
-127 141 -250 223 -352 28 -34 50 -65 50 -69 0 -4 -36 -22 -79 -39 -124 -50
-232 -108 -344 -184 -162 -110 -151 -93 -94 -152 254 -259 603 -447 961 -520
138 -27 437 -37 582 -19 314 39 629 169 889 365 39 30 48 32 155 39 309 18
572 85 833 210 233 112 419 242 589 411 156 154 249 313 304 513 24 88 26 113
26 277 0 153 -4 192 -22 258 -118 430 -439 731 -864 812 -103 19 -293 19 -395
0 -221 -42 -394 -134 -585 -311 -101 -94 -224 -176 -330 -220 -628 -265 -1337
93 -1495 756 -65 275 -11 595 140 828 26 40 45 72 44 72 -2 0 -26 -28 -53 -62z
m2588 -1844 c60 -19 136 -87 168 -150 38 -74 41 -194 7 -267 -67 -148 -228
-220 -383 -171 -82 25 -175 116 -198 194 -45 151 13 303 143 373 87 48 160 54
263 21z"/>
<path d="M1710 3675 c-75 -24 -141 -82 -179 -158 -30 -58 -34 -76 -34 -139 0
-88 23 -146 83 -212 63 -68 134 -99 226 -99 65 0 83 4 141 34 284 145 194 568
-125 585 -41 2 -84 -2 -112 -11z"/>
</g>
</svg>
